<?xml version="1.0" encoding="UTF-8" standalone="no"?>
<!DOCTYPE svg PUBLIC "-//W3C//DTD SVG 1.1//EN" "http://www.w3.org/Graphics/SVG/1.1/DTD/svg11.dtd">
<svg xmlns="http://www.w3.org/2000/svg" version="1.1" viewBox="0.00 0.00 285.00 285.00">
<g stroke-width="2.00" fill="none" stroke-linecap="butt">
<path stroke="#f8b69a" vector-effect="non-scaling-stroke" d="
  M 262.28 100.49
  Q 263.31 100.18 262.98 99.25
  C 248.71 58.37 215.15 28.48 173.32 18.01
  Q 140.17 9.72 106.97 18.45
  C 63.32 29.93 27.83 63.59 16.59 107.61
  Q 5.95 149.23 24.46 188.87
  A 1.19 1.19 0.0 0 0 26.02 189.44
  L 30.07 187.61
  Q 31.24 187.09 30.71 185.96
  Q 17.25 157.39 20.25 126.56
  Q 23.38 94.42 43.04 68.55
  C 85.57 12.63 168.91 4.57 221.98 50.59
  Q 246.03 71.45 256.32 101.21
  Q 256.65 102.16 257.57 101.89
  L 262.28 100.49"
/>
<path stroke="#f8b69a" vector-effect="non-scaling-stroke" d="
  M 41.22 103.71
  A 106.44 102.25 -0.6 0 0 35.39 130.01
  A 106.55 102.40 -0.5 0 0 39.90 168.49
  A 38.14 13.55 70.0 0 0 41.71 173.57"
/>
<path stroke="#91a0cb" vector-effect="non-scaling-stroke" d="
  M 41.71 173.57
  A 106.53 102.35 0.0 0 0 74.51 217.50
  A 106.47 102.27 -0.4 0 0 128.48 239.56
  A 106.48 102.32 0.0 0 0 190.78 228.76
  A 106.55 102.43 -0.0 0 0 233.48 189.73
  A 106.50 102.32 -0.4 0 0 247.80 130.50
  A 106.54 102.36 0.2 0 0 226.95 76.78
  A 106.55 102.29 -0.2 0 0 179.06 42.18
  A 106.53 102.35 -0.6 0 0 120.63 37.63
  A 106.51 102.39 -0.2 0 0 65.31 66.54
  A 106.50 102.35 -0.0 0 0 41.22 103.71"
/>
<path stroke="#8a5666" vector-effect="non-scaling-stroke" d="
  M 41.71 173.57
  L 58.22 173.76"
/>
<path stroke="#91a0cb" vector-effect="non-scaling-stroke" d="
  M 58.22 173.76
  C 69.83 195.76 89.15 212.89 112.80 220.37
  C 136.30 227.80 162.21 224.40 184.57 213.35
  Q 192.60 209.37 197.65 203.23
  Q 202.23 197.64 200.79 191.46
  Q 200.25 189.18 200.70 188.08
  C 202.03 184.78 202.76 182.79 201.89 179.36
  Q 200.77 174.96 196.94 174.11
  C 193.61 173.38 190.47 175.92 187.61 174.27
  Q 183.57 171.94 182.66 169.78
  Q 182.06 168.34 180.55 159.31
  Q 180.00 156.00 180.55 154.24
  C 182.28 148.74 187.80 144.11 193.52 143.52
  Q 208.56 141.96 215.26 141.29
  Q 216.58 141.15 218.11 141.95
  C 221.36 143.63 219.71 148.60 224.65 148.59
  C 226.93 148.58 227.97 144.72 227.69 143.32
  Q 227.19 140.85 224.53 134.32
  Q 223.66 132.16 221.53 132.16
  Q 216.37 132.16 209.86 134.69
  A 4.47 4.46 -40.2 0 1 205.96 134.37
  L 205.62 134.17
  Q 203.34 132.81 205.71 131.61
  Q 212.70 128.05 217.57 125.57
  Q 219.18 124.74 219.60 123.42
  A 2.28 2.16 21.9 0 0 218.39 120.79
  L 212.28 117.77
  A 2.02 1.92 31.4 0 1 211.49 114.84
  C 213.23 112.54 217.08 112.96 220.08 112.83
  C 221.26 112.78 222.80 112.25 223.10 111.12
  Q 223.53 109.47 223.09 108.87
  Q 221.68 106.96 220.31 105.12
  Q 218.68 102.92 216.56 94.18
  Q 215.81 91.04 212.72 91.95
  Q 211.46 92.33 208.19 93.72
  Q 207.68 93.94 204.45 93.90
  Q 203.50 93.88 200.84 93.07
  Q 198.83 92.46 197.11 92.53
  Q 195.38 92.60 188.83 93.70
  Q 186.84 94.03 184.74 93.30
  A 2.47 2.45 10.2 0 1 183.09 90.94
  C 183.13 88.32 184.80 86.08 186.41 84.22
  C 188.40 81.92 189.16 78.51 186.71 76.53
  Q 180.80 71.76 175.72 68.05
  A 2.50 2.50 0.0 0 0 171.81 69.52
  C 171.33 71.64 171.93 74.47 172.27 78.23
  Q 172.41 79.78 170.56 80.92
  Q 169.39 81.64 167.91 80.85
  Q 164.50 79.03 164.65 74.58
  Q 164.90 67.05 168.35 59.77
  A 1.87 1.81 -71.7 0 0 167.08 57.14
  L 148.73 53.73
  Q 148.18 53.63 147.77 53.82
  Q 142.52 56.26 135.79 58.47
  Q 133.75 59.14 132.04 61.09
  A 1.67 1.67 0.0 0 0 132.09 63.36
  Q 134.52 65.85 137.47 66.65
  Q 139.33 67.16 143.60 66.86
  Q 147.94 66.56 150.35 66.58
  A 1.71 1.71 0.0 0 1 152.05 68.21
  C 152.16 70.55 150.37 71.91 148.09 72.68
  Q 145.30 73.62 144.13 73.90
  C 142.04 74.40 140.96 76.35 141.10 78.08
  Q 141.24 79.65 142.98 83.28
  Q 143.18 83.69 143.63 83.81
  Q 145.13 84.22 146.74 83.91
  Q 150.65 83.16 152.04 82.79
  Q 157.26 81.43 160.09 85.42
  Q 163.80 90.63 164.19 96.12
  A 2.99 2.81 77.4 0 1 162.45 99.06
  Q 162.04 99.23 160.82 98.75
  Q 160.18 98.50 159.58 97.76
  Q 157.49 95.16 154.30 96.08
  Q 153.82 96.22 153.33 96.10
  Q 150.38 95.35 149.41 95.58
  Q 145.42 96.50 141.40 97.31
  Q 137.00 98.20 133.59 99.62
  Q 128.86 101.59 124.05 103.91"
/>
<path stroke="#8a5666" vector-effect="non-scaling-stroke" d="
  M 124.05 103.91
  L 111.88 103.95"
/>
<path stroke="#91a0cb" vector-effect="non-scaling-stroke" d="
  M 111.88 103.95
  Q 110.33 98.92 105.83 97.90
  C 102.58 97.17 95.07 97.12 92.59 99.31
  Q 90.30 101.32 92.15 103.85"
/>
<path stroke="#8a5666" vector-effect="non-scaling-stroke" d="
  M 92.15 103.85
  L 84.80 103.83"
/>
<path stroke="#91a0cb" vector-effect="non-scaling-stroke" d="
  M 84.80 103.83
  Q 83.16 100.39 83.06 99.21
  Q 82.10 87.66 79.33 76.49
  A 0.21 0.21 0.0 0 0 78.98 76.39
  Q 66.70 88.10 58.80 103.76"
/>
<path stroke="#8a5666" vector-effect="non-scaling-stroke" d="
  M 58.80 103.76
  L 41.22 103.71"
/>
<path stroke="#f8b69a" vector-effect="non-scaling-stroke" d="
  M 58.22 173.76
  L 95.26 173.73"
/>
<path stroke="#91a0cb" vector-effect="non-scaling-stroke" d="
  M 95.26 173.73
  Q 89.74 181.70 87.72 190.95
  Q 86.10 198.37 90.40 204.00
  C 91.19 205.03 92.45 207.12 93.90 208.13
  A 1.79 1.79 0.0 0 0 96.65 207.15
  C 98.96 198.92 101.10 191.76 110.16 189.14
  Q 114.76 187.80 116.02 187.24
  Q 124.22 183.60 132.27 179.77
  Q 136.38 177.81 137.44 173.74"
/>
<path stroke="#f8b69a" vector-effect="non-scaling-stroke" d="
  M 137.44 173.74
  Q 146.52 173.86 155.48 173.53
  Q 163.78 173.23 167.25 165.73
  Q 174.01 151.07 178.28 142.02
  Q 179.60 139.23 178.90 137.90
  Q 171.90 124.53 164.28 109.33
  Q 162.85 106.47 160.94 105.38
  Q 158.48 103.98 154.56 103.93
  Q 139.48 103.73 124.05 103.91"
/>
<path stroke="#f8b69a" vector-effect="non-scaling-stroke" d="
  M 84.80 103.83
  L 58.80 103.76"
/>
<path stroke="#f8b69a" vector-effect="non-scaling-stroke" d="
  M 111.88 103.95
  L 92.15 103.85"
/>
<path stroke="#8a5666" vector-effect="non-scaling-stroke" d="
  M 137.44 173.74
  L 95.26 173.73"
/>
<path stroke="#91a0cb" vector-effect="non-scaling-stroke" d="
  M 253.55 119.28
  Q 254.65 124.92 254.87 125.48
  A 1.04 0.46 73.3 0 0 255.47 126.18
  Q 257.01 126.33 257.99 125.63
  A 0.88 0.82 68.3 0 0 258.32 124.79
  L 257.67 121.13
  Q 257.55 120.48 258.17 120.36
  L 272.42 117.57
  Q 272.93 117.47 273.03 116.96
  Q 273.13 116.40 272.96 115.51
  Q 272.78 114.62 272.48 114.13
  Q 272.20 113.70 271.69 113.80
  L 257.43 116.55
  Q 256.81 116.67 256.68 116.02
  L 255.91 112.38
  A 0.88 0.82 89.7 0 0 255.29 111.73
  Q 254.12 111.45 252.75 112.16
  A 1.04 0.46 84.7 0 0 252.45 113.03
  Q 252.46 113.64 253.55 119.28"
/>
<path stroke="#91a0cb" vector-effect="non-scaling-stroke" d="
  M 264.14 133.89
  Q 260.28 138.10 256.25 142.97
  A 0.57 0.57 0.0 0 0 256.72 143.90
  L 274.78 143.05
  Q 275.80 143.00 275.75 141.95
  L 275.66 140.15
  Q 275.62 139.20 274.71 139.24
  L 264.96 139.67
  A 0.30 0.30 0.0 0 1 264.71 139.19
  Q 265.83 137.81 266.98 136.56
  Q 270.84 132.35 274.87 127.48
  A 0.57 0.57 0.0 0 0 274.40 126.55
  L 256.34 127.40
  Q 255.32 127.45 255.37 128.50
  L 255.46 130.30
  Q 255.50 131.25 256.41 131.21
  L 266.16 130.78
  A 0.30 0.30 0.0 0 1 266.41 131.26
  Q 265.29 132.64 264.14 133.89"
/>
<path stroke="#91a0cb" vector-effect="non-scaling-stroke" d="
  M 264.20 161.00
  Q 271.83 161.84 273.32 161.94
  A 0.74 0.73 -84.7 0 0 274.10 161.28
  L 275.45 149.05
  A 0.98 0.95 -84.4 0 0 274.60 147.98
  L 273.01 147.83
  A 1.10 1.10 0.0 0 0 271.81 148.80
  L 270.93 156.90
  Q 270.83 157.84 269.88 157.76
  L 267.49 157.55
  Q 266.48 157.47 266.58 156.48
  L 267.32 149.26
  A 0.86 0.82 -76.7 0 0 266.81 148.39
  Q 266.39 148.22 265.61 148.13
  Q 264.82 148.05 264.37 148.12
  A 0.86 0.82 89.2 0 0 263.69 148.86
  L 262.85 156.07
  Q 262.73 157.06 261.73 156.92
  L 259.35 156.61
  Q 258.41 156.48 258.51 155.54
  L 259.40 147.44
  A 1.10 1.10 0.0 0 0 258.44 146.24
  L 256.86 146.04
  A 0.98 0.95 -83.1 0 0 255.79 146.90
  L 254.47 159.13
  A 0.74 0.73 -82.8 0 0 255.09 159.95
  Q 256.56 160.17 264.20 161.00"
/>
<path stroke="#91a0cb" vector-effect="non-scaling-stroke" d="
  M 261.65 174.72
  Q 261.59 174.93 261.50 174.97
  Q 256.87 176.86 249.81 179.71
  Q 247.52 180.64 249.91 181.32
  L 266.48 186.08
  Q 267.51 186.37 267.84 185.27
  L 268.28 183.76
  Q 268.60 182.66 267.47 182.34
  L 260.43 180.34
  Q 259.37 180.03 260.39 179.62
  Q 263.59 178.32 267.21 176.69
  Q 267.33 176.63 267.41 176.37
  Q 267.48 176.10 267.41 175.99
  Q 265.20 172.69 263.17 169.90
  Q 262.52 169.01 263.59 169.31
  L 270.62 171.33
  Q 271.75 171.66 272.06 170.55
  L 272.48 169.04
  Q 272.78 167.93 271.76 167.63
  L 255.18 162.91
  Q 252.79 162.22 254.24 164.22
  Q 258.73 170.38 261.65 174.43
  Q 261.71 174.51 261.65 174.72"
/>
<path stroke="#91a0cb" vector-effect="non-scaling-stroke" d="
  M 244.65 188.28
  Q 242.04 193.76 241.94 194.01
  Q 241.67 194.69 242.00 194.99
  Q 243.23 196.10 244.55 196.02
  Q 245.03 195.99 245.23 195.55
  L 246.77 192.29
  A 0.74 0.74 0.0 0 1 247.75 191.93
  L 260.69 198.08
  Q 261.19 198.31 261.61 197.95
  Q 261.95 197.67 262.40 196.72
  Q 262.85 195.78 262.85 195.34
  Q 262.87 194.78 262.37 194.54
  L 249.44 188.38
  A 0.74 0.74 0.0 0 1 249.10 187.39
  L 250.66 184.14
  Q 250.87 183.71 250.59 183.32
  Q 249.82 182.24 248.19 181.99
  Q 247.75 181.92 247.39 182.56
  Q 247.26 182.79 244.65 188.28"
/>
<path stroke="#91a0cb" vector-effect="non-scaling-stroke" d="
  M 30.78 205.93
  Q 28.74 202.53 31.97 200.42
  Q 36.18 197.68 41.36 194.85
  Q 42.49 194.24 41.82 193.08
  L 41.19 192.01
  Q 40.52 190.87 39.31 191.52
  Q 33.97 194.41 29.82 197.05
  C 21.26 202.50 29.51 215.40 38.19 211.19
  Q 40.30 210.17 47.93 205.51
  Q 49.31 204.68 48.44 203.39
  L 48.04 202.80
  Q 47.17 201.51 45.82 202.27
  L 36.74 207.44
  Q 33.18 209.46 30.97 206.21
  Q 30.81 205.98 30.78 205.93"
/>
<path stroke="#91a0cb" vector-effect="non-scaling-stroke" d="
  M 239.26 205.72
  C 239.31 203.17 241.31 201.37 243.52 200.27
  A 1.52 1.37 -24.7 0 0 244.30 198.46
  L 244.03 197.83
  A 1.78 1.72 65.2 0 0 241.64 196.90
  Q 237.12 199.18 235.66 203.56
  Q 234.77 206.23 235.72 207.93
  C 237.80 211.64 242.10 211.76 245.11 209.04
  Q 249.07 205.45 249.26 205.29
  A 1.74 1.71 -45.0 0 1 251.54 205.27
  Q 252.33 205.98 252.07 207.38
  C 251.60 209.90 249.29 211.17 246.79 212.54
  Q 245.73 213.13 246.32 214.26
  L 246.90 215.38
  Q 247.43 216.37 248.48 215.95
  Q 253.45 213.95 255.55 209.16
  Q 257.43 204.89 254.15 202.20
  C 249.55 198.43 245.53 203.23 242.41 206.13
  Q 240.93 207.50 239.69 206.58
  Q 239.25 206.26 239.26 205.72"
/>
<path stroke="#91a0cb" vector-effect="non-scaling-stroke" d="
  M 48.00 218.68
  L 52.10 209.99
  A 2.09 1.66 -55.4 0 0 51.96 207.91
  L 50.85 206.62
  Q 49.80 205.41 49.20 206.68
  L 40.90 224.16
  A 0.54 0.54 0.0 0 0 41.16 224.88
  Q 41.55 225.06 42.19 224.89
  Q 52.59 222.14 61.12 219.72
  Q 62.30 219.39 61.44 218.47
  L 60.11 217.02
  Q 59.35 216.20 58.19 216.51
  L 48.39 219.15
  Q 47.68 219.34 48.00 218.68"
/>
<path stroke="#91a0cb" vector-effect="non-scaling-stroke" d="
  M 228.27 218.80
  A 0.82 0.82 0.0 0 1 228.21 217.62
  L 234.03 211.38
  A 0.82 0.82 0.0 0 0 234.00 210.24
  L 232.64 208.90
  A 0.82 0.82 0.0 0 0 231.47 208.93
  L 222.84 218.20
  A 0.82 0.82 0.0 0 0 222.91 219.38
  L 236.39 230.98
  A 0.82 0.82 0.0 0 0 237.53 230.91
  L 246.17 221.65
  A 0.82 0.82 0.0 0 0 246.11 220.47
  L 244.63 219.16
  A 0.82 0.82 0.0 0 0 243.49 219.22
  L 237.45 225.72
  A 0.82 0.82 0.0 0 1 236.30 225.76
  L 234.41 224.05
  A 0.82 0.82 0.0 0 1 234.37 222.88
  L 239.46 217.43
  A 0.82 0.82 0.0 0 0 239.39 216.24
  L 237.89 214.97
  A 0.82 0.82 0.0 0 0 236.76 215.02
  L 231.49 220.59
  A 0.82 0.82 0.0 0 1 230.35 220.64
  L 228.27 218.80"
/>
<path stroke="#91a0cb" vector-effect="non-scaling-stroke" d="
  M 220.80 233.20
  L 212.03 229.17
  Q 210.41 228.42 209.03 229.61
  L 208.41 230.15
  Q 207.16 231.24 208.67 231.93
  Q 222.37 238.22 225.48 239.83
  Q 226.20 240.21 226.53 240.13
  Q 227.47 239.90 227.22 238.97
  L 222.35 220.96
  Q 221.93 219.39 220.66 220.40
  L 219.66 221.19
  Q 218.43 222.18 218.85 223.69
  L 221.33 232.73
  A 0.39 0.39 0.0 0 1 220.80 233.20"
/>
<path stroke="#91a0cb" vector-effect="non-scaling-stroke" d="
  M 51.75 232.55
  A 1.04 0.96 49.5 0 1 52.90 232.69
  L 58.65 237.57
  Q 59.00 237.86 58.88 238.54
  L 58.53 240.59
  A 1.40 1.26 25.6 0 0 59.04 241.83
  L 60.73 243.21
  Q 61.59 243.90 61.87 242.90
  L 67.13 223.77
  A 0.79 0.64 16.0 0 0 66.56 222.95
  Q 66.39 222.90 65.86 223.10
  Q 58.81 225.77 46.72 230.50
  A 0.25 0.24 -26.0 0 0 46.59 230.85
  Q 48.56 234.38 51.75 232.55"
/>
<path stroke="#91a0cb" vector-effect="non-scaling-stroke" d="
  M 204.23 242.30
  Q 202.71 241.94 193.49 239.79
  Q 192.58 239.58 191.88 239.83
  A 0.49 0.49 0.0 0 0 191.63 240.54
  L 200.58 255.41
  A 1.32 1.27 59.1 0 0 202.35 255.89
  L 203.70 255.08
  Q 204.73 254.47 204.14 253.49
  L 199.33 245.55
  A 0.25 0.24 78.7 0 1 199.57 245.18
  Q 201.39 245.48 203.28 245.92
  Q 204.80 246.28 214.02 248.43
  Q 214.93 248.64 215.63 248.39
  A 0.49 0.49 0.0 0 0 215.88 247.68
  L 206.93 232.81
  A 1.32 1.27 59.1 0 0 205.16 232.33
  L 203.81 233.14
  Q 202.78 233.75 203.37 234.73
  L 208.18 242.67
  A 0.25 0.24 78.7 0 1 207.94 243.04
  Q 206.12 242.74 204.23 242.30"
/>
<path stroke="#91a0cb" vector-effect="non-scaling-stroke" d="
  M 85.9380 237.6487
  A 1.12 1.12 0.0 0 0 85.5655 236.1092
  L 84.0291 235.1714
  A 1.12 1.12 0.0 0 0 82.4896 235.5438
  L 73.6220 250.0713
  A 1.12 1.12 0.0 0 0 73.9945 251.6108
  L 75.5309 252.5486
  A 1.12 1.12 0.0 0 0 77.0704 252.1762
  L 85.9380 237.6487"
/>
<path stroke="#91a0cb" vector-effect="non-scaling-stroke" d="
  M 99.30 253.82
  A 0.35 0.35 0.0 0 1 99.78 254.27
  L 96.71 261.46
  A 0.35 0.35 0.0 0 0 96.90 261.92
  L 99.98 263.15
  A 0.35 0.35 0.0 0 0 100.43 262.97
  L 107.79 245.78
  A 0.35 0.35 0.0 0 0 107.31 245.33
  L 94.69 251.81
  A 0.35 0.35 0.0 0 1 94.20 251.60
  L 90.12 238.42
  A 0.35 0.35 0.0 0 0 89.46 238.39
  L 81.98 255.68
  A 0.35 0.35 0.0 0 0 82.18 256.15
  L 85.31 257.35
  A 0.35 0.35 0.0 0 0 85.76 257.16
  L 88.89 249.74
  A 0.35 0.35 0.0 0 1 89.54 249.78
  L 91.82 257.10
  A 0.35 0.35 0.0 0 0 92.31 257.31
  L 99.30 253.82"
/>
<path stroke="#91a0cb" vector-effect="non-scaling-stroke" d="
  M 188.5753 242.1140
  A 1.22 1.22 0.0 0 0 186.9679 241.4872
  L 185.5028 242.1304
  A 1.22 1.22 0.0 0 0 184.8761 243.7378
  L 191.6047 259.0660
  A 1.22 1.22 0.0 0 0 193.2121 259.6928
  L 194.6772 259.0496
  A 1.22 1.22 0.0 0 0 195.3039 257.4422
  L 188.5753 242.1140"
/>
<path stroke="#91a0cb" vector-effect="non-scaling-stroke" d="
  M 112.00 260.35
  Q 117.82 261.58 119.20 261.22
  Q 124.26 259.91 124.57 255.16
  C 124.76 252.13 122.90 249.19 120.12 248.41
  Q 116.26 247.33 111.27 246.42
  A 0.88 0.87 -78.3 0 0 110.26 247.09
  L 106.45 263.50
  Q 106.14 264.85 107.51 265.09
  L 109.00 265.35
  Q 110.10 265.54 110.38 264.41
  L 111.27 260.81
  Q 111.42 260.23 112.00 260.35"
/>
<path stroke="#91a0cb" vector-effect="non-scaling-stroke" d="
  M 167.28 247.59
  Q 161.40 248.93 160.80 249.18
  Q 160.12 249.46 160.10 249.75
  Q 159.98 251.34 160.93 252.22
  A 1.02 0.90 -27.9 0 0 161.79 252.43
  L 165.50 251.60
  A 0.60 0.57 -12.3 0 1 166.21 252.03
  L 169.29 265.62
  Q 169.41 266.17 169.96 266.26
  Q 170.62 266.37 171.49 266.17
  Q 172.36 265.97 172.91 265.59
  Q 173.37 265.27 173.24 264.72
  L 170.16 251.13
  A 0.60 0.57 -13.3 0 1 170.61 250.44
  L 174.32 249.59
  A 1.02 0.90 2.4 0 0 175.00 249.03
  Q 175.48 247.83 174.69 246.44
  Q 174.54 246.19 173.81 246.23
  Q 173.16 246.26 167.28 247.59"
/>
<path stroke="#91a0cb" vector-effect="non-scaling-stroke" d="
  M 142.25 260.32
  C 142.94 270.19 155.91 272.42 161.14 264.80
  A 0.97 0.97 0.0 0 0 160.79 263.39
  Q 159.57 262.77 158.46 262.73
  A 1.13 1.11 21.5 0 0 157.61 263.09
  Q 152.11 268.85 147.17 262.83
  Q 146.39 261.90 146.27 260.04
  Q 146.13 258.19 146.78 257.16
  Q 150.84 250.51 157.08 255.46
  A 1.13 1.11 -29.4 0 0 157.97 255.70
  Q 159.07 255.51 160.19 254.73
  A 0.97 0.97 0.0 0 0 160.34 253.28
  C 154.12 246.46 141.58 250.45 142.25 260.32"
/>
<path stroke="#91a0cb" vector-effect="non-scaling-stroke" d="
  M 131.13 265.83
  Q 133.97 266.07 135.14 266.27
  A 0.94 0.93 88.6 0 1 135.91 267.01
  Q 136.51 270.15 140.57 269.40
  Q 141.08 269.30 140.88 268.82
  Q 136.81 259.07 133.15 250.38
  Q 133.07 250.19 132.87 250.06
  Q 132.68 249.94 132.46 249.92
  Q 132.25 249.90 132.04 249.99
  Q 131.82 250.09 131.71 250.26
  Q 126.66 258.22 121.03 267.16
  Q 120.75 267.60 121.24 267.79
  Q 125.12 269.20 126.23 266.20
  A 0.94 0.93 -79.1 0 1 127.11 265.60
  Q 128.30 265.60 131.13 265.83"
/>
<path stroke="#f8b69a" vector-effect="non-scaling-stroke" d="
  M 112.2900 132.8905
  A 11.73 11.30 0.1 0 0 100.5797 121.5700
  A 11.73 11.30 0.1 0 0 88.8300 132.8495
  A 11.73 11.30 0.1 0 0 100.5403 144.1700
  A 11.73 11.30 0.1 0 0 112.2900 132.8905"
/>
<path stroke="#f8b69a" vector-effect="non-scaling-stroke" d="
  M 51.74 138.08
  Q 51.75 137.31 52.49 137.36
  C 56.13 137.61 61.85 137.45 64.02 134.32
  Q 65.82 131.73 65.25 128.77
  Q 64.02 122.25 57.01 122.07
  Q 53.42 121.98 47.91 122.11
  Q 47.31 122.13 47.30 122.74
  L 47.24 142.68
  Q 47.24 143.87 48.48 143.84
  L 50.47 143.81
  Q 51.69 143.79 51.70 142.54
  L 51.74 138.08"
/>
<path stroke="#f8b69a" vector-effect="non-scaling-stroke" d="
  M 73.29 136.95
  C 75.51 136.82 76.39 136.66 77.81 138.58
  Q 80.01 141.56 81.02 142.82
  Q 81.88 143.89 83.27 143.80
  L 85.68 143.64
  Q 87.00 143.56 86.21 142.53
  L 82.33 137.47
  Q 81.75 136.72 82.50 136.16
  Q 86.81 132.99 85.99 128.13
  Q 85.59 125.79 83.93 124.13
  Q 82.18 122.38 79.54 122.17
  Q 74.83 121.79 68.76 122.19
  Q 68.01 122.23 68.02 122.97
  L 68.09 142.59
  Q 68.10 143.86 69.34 143.82
  L 71.33 143.76
  Q 72.41 143.72 72.44 142.78
  L 72.63 137.65
  Q 72.65 136.98 73.29 136.95"
/>
<path stroke="#f8b69a" vector-effect="non-scaling-stroke" d="
  M 120.59 135.71
  A 0.79 0.79 0.0 0 1 121.38 134.93
  L 130.62 134.89
  A 0.79 0.79 0.0 0 0 131.40 134.08
  L 131.33 131.87
  A 0.79 0.79 0.0 0 0 130.55 131.11
  L 121.40 131.00
  A 0.79 0.79 0.0 0 1 120.62 130.22
  L 120.59 126.66
  A 0.79 0.79 0.0 0 1 121.37 125.86
  L 131.80 125.70
  A 0.79 0.79 0.0 0 0 132.57 124.99
  L 132.80 122.92
  A 0.79 0.79 0.0 0 0 132.01 122.04
  L 116.87 122.07
  A 0.79 0.79 0.0 0 0 116.08 122.86
  L 116.17 142.97
  A 0.79 0.79 0.0 0 0 116.95 143.76
  L 119.71 143.78
  A 0.79 0.79 0.0 0 0 120.51 143.00
  L 120.59 135.71"
/>
<path stroke="#f8b69a" vector-effect="non-scaling-stroke" d="
  M 141.2773 123.0340
  A 0.93 0.93 0.0 0 0 140.3489 122.1024
  L 137.6489 122.0977
  A 0.93 0.93 0.0 0 0 136.7173 123.0260
  L 136.6827 142.8260
  A 0.93 0.93 0.0 0 0 137.6111 143.7576
  L 140.3111 143.7623
  A 0.93 0.93 0.0 0 0 141.2427 142.8340
  L 141.2773 123.0340"
/>
<path stroke="#f8b69a" vector-effect="non-scaling-stroke" d="
  M 152.92 143.82
  Q 153.95 143.81 154.61 143.62
  A 0.69 0.69 0.0 0 0 155.11 142.97
  L 155.14 126.76
  A 0.86 0.85 89.7 0 1 155.97 125.91
  L 160.55 125.80
  A 0.95 0.86 1.3 0 0 161.47 125.00
  L 161.63 123.00
  Q 161.70 122.14 160.85 122.12
  Q 157.05 122.00 152.90 122.04
  Q 148.75 122.01 144.95 122.14
  Q 144.10 122.16 144.18 123.02
  L 144.34 125.02
  A 0.95 0.86 -1.4 0 0 145.26 125.82
  L 149.84 125.92
  A 0.86 0.85 -89.8 0 1 150.67 126.76
  L 150.74 142.97
  A 0.69 0.69 0.0 0 0 151.24 143.62
  Q 151.90 143.81 152.92 143.82"
/>
<path stroke="#f8b69a" vector-effect="non-scaling-stroke" d="
  M 51.87 154.50
  Q 52.29 154.50 52.46 154.87
  Q 53.30 156.74 54.11 158.41
  A 0.70 0.68 -48.3 0 0 55.38 158.32
  L 58.43 150.05
  A 0.71 0.69 -82.7 0 0 57.72 149.10
  L 57.37 149.14
  Q 56.64 149.21 56.35 149.89
  L 54.88 153.29
  A 0.52 0.49 -44.1 0 1 53.94 153.30
  Q 53.36 151.67 52.53 149.94
  Q 52.26 149.37 51.87 149.37
  Q 51.49 149.37 51.22 149.94
  Q 50.39 151.67 49.81 153.30
  A 0.52 0.49 44.1 0 1 48.87 153.29
  L 47.40 149.89
  Q 47.11 149.21 46.38 149.14
  L 46.03 149.10
  A 0.71 0.69 82.7 0 0 45.32 150.05
  L 48.36 158.32
  A 0.70 0.68 48.3 0 0 49.63 158.41
  Q 50.44 156.74 51.29 154.87
  Q 51.46 154.50 51.87 154.50"
/>
<path stroke="#f8b69a" vector-effect="non-scaling-stroke" d="
  M 62.0372 150.0517
  A 0.90 0.90 0.0 0 0 61.1387 149.1501
  L 61.0387 149.1499
  A 0.90 0.90 0.0 0 0 60.1372 150.0483
  L 60.1228 158.2683
  A 0.90 0.90 0.0 0 0 61.0213 159.1699
  L 61.1213 159.1701
  A 0.90 0.90 0.0 0 0 62.0228 158.2717
  L 62.0372 150.0517"
/>
<path stroke="#f8b69a" vector-effect="non-scaling-stroke" d="
  M 67.70 159.19
  Q 68.89 159.19 68.82 157.25
  Q 68.69 153.61 68.82 151.69
  Q 68.85 151.18 69.35 151.07
  Q 70.68 150.76 71.15 150.59
  Q 71.87 150.33 71.81 149.84
  Q 71.76 149.40 71.12 149.24
  Q 70.67 149.13 67.72 149.12
  Q 64.77 149.12 64.32 149.23
  Q 63.68 149.39 63.63 149.83
  Q 63.57 150.31 64.29 150.58
  Q 64.76 150.75 66.09 151.06
  Q 66.59 151.18 66.61 151.69
  Q 66.74 153.61 66.59 157.25
  Q 66.52 159.19 67.70 159.19"
/>
<path stroke="#f8b69a" vector-effect="non-scaling-stroke" d="
  M 77.52 155.15
  Q 78.39 155.15 79.17 155.19
  A 0.87 0.87 0.0 0 1 79.98 155.98
  L 80.21 158.52
  Q 80.25 159.03 80.73 159.23
  Q 81.17 159.41 81.65 159.03
  A 1.09 1.06 71.4 0 0 82.06 158.18
  L 82.06 149.78
  A 0.83 0.71 0.8 0 0 81.25 149.07
  L 80.83 149.07
  A 0.69 0.67 -88.3 0 0 80.15 149.73
  L 80.02 152.72
  Q 80.00 153.22 79.48 153.30
  Q 79.15 153.35 77.52 153.35
  Q 75.89 153.35 75.56 153.30
  Q 75.04 153.22 75.02 152.72
  L 74.89 149.73
  A 0.69 0.67 88.3 0 0 74.22 149.07
  L 73.80 149.07
  A 0.83 0.71 -0.8 0 0 72.98 149.78
  L 72.98 158.18
  A 1.09 1.06 -71.4 0 0 73.39 159.03
  Q 73.87 159.41 74.31 159.23
  Q 74.79 159.03 74.83 158.52
  L 75.06 155.98
  A 0.87 0.87 0.0 0 1 75.87 155.19
  Q 76.65 155.15 77.52 155.15"
/>
<path stroke="#f8b69a" vector-effect="non-scaling-stroke" d="
  M 91.84 156.15
  Q 93.11 156.31 94.52 156.10
  C 98.17 155.57 98.22 150.12 94.74 149.35
  Q 92.63 148.88 89.48 149.20
  Q 88.93 149.25 88.94 149.81
  L 89.09 158.35
  Q 89.10 158.88 89.56 159.14
  Q 89.74 159.24 89.94 159.25
  Q 90.47 159.28 90.67 158.78
  Q 91.05 157.79 91.09 156.80
  A 0.67 0.67 0.0 0 1 91.84 156.15"
/>
<path stroke="#f8b69a" vector-effect="non-scaling-stroke" d="
  M 116.68 155.55
  Q 118.47 153.95 118.01 151.61
  Q 117.58 149.48 115.29 149.30
  L 111.62 149.01
  Q 109.60 148.85 109.63 150.86
  L 109.74 158.37
  A 0.79 0.70 88.6 0 0 110.47 159.15
  L 110.84 159.13
  Q 111.64 159.10 111.71 158.36
  L 111.87 156.55
  Q 111.92 156.05 112.45 155.96
  Q 113.21 155.82 113.59 156.16
  Q 114.05 156.58 115.21 158.22
  Q 115.77 159.01 116.86 159.11
  L 117.68 159.19
  Q 118.60 159.28 118.07 158.54
  L 116.61 156.53
  Q 116.20 155.97 116.68 155.55"
/>
<path stroke="#f8b69a" vector-effect="non-scaling-stroke" d="
  M 122.02 156.78
  A 0.67 0.64 -84.3 0 1 122.64 156.25
  C 124.28 156.21 126.74 156.15 127.58 154.69
  C 128.67 152.76 128.07 149.88 125.61 149.40
  Q 122.83 148.86 120.29 149.21
  Q 119.74 149.29 119.74 149.87
  L 119.71 158.20
  A 0.94 0.93 17.0 0 0 120.13 158.98
  Q 120.61 159.29 121.04 159.17
  Q 121.52 159.04 121.63 158.54
  L 122.02 156.78"
/>
<path stroke="#f8b69a" vector-effect="non-scaling-stroke" d="
  M 139.8025 154.4352
  A 5.45 5.16 3.0 0 0 134.6301 148.9971
  A 5.45 5.16 3.0 0 0 128.9175 153.8648
  A 5.45 5.16 3.0 0 0 134.0899 159.3029
  A 5.45 5.16 3.0 0 0 139.8025 154.4352"
/>
<path stroke="#f8b69a" vector-effect="non-scaling-stroke" d="
  M 146.37 157.32
  Q 144.48 157.63 142.33 156.34
  A 0.69 0.67 -71.8 0 0 141.31 156.87
  L 141.26 157.34
  A 1.03 1.00 -73.0 0 0 141.77 158.34
  C 144.65 159.92 150.68 160.22 149.18 154.81
  Q 148.96 154.02 148.16 153.78
  L 143.81 152.48
  A 0.72 0.71 27.0 0 1 143.44 151.37
  Q 143.84 150.86 144.76 150.94
  Q 145.71 151.02 147.66 151.62
  Q 148.26 151.80 148.62 151.29
  Q 148.84 150.98 148.71 150.60
  Q 148.40 149.69 147.95 149.54
  C 145.51 148.75 141.19 148.40 141.11 151.99
  Q 141.06 154.22 143.10 154.65
  Q 144.57 154.97 146.46 155.32
  Q 146.99 155.42 147.20 155.91
  Q 147.38 156.34 147.19 156.70
  Q 146.92 157.24 146.37 157.32"
/>
<path stroke="#f8b69a" vector-effect="non-scaling-stroke" d="
  M 150.78 154.13
  Q 150.79 156.23 150.94 158.63
  A 0.62 0.56 -2.0 0 0 151.57 159.16
  L 158.08 159.03
  A 0.52 0.48 -0.0 0 0 158.59 158.56
  L 158.61 158.08
  Q 158.62 157.33 157.84 157.32
  L 153.78 157.26
  Q 152.82 157.24 152.86 156.33
  L 152.88 156.01
  A 0.94 0.91 -87.3 0 1 153.84 155.11
  Q 155.93 155.22 157.00 155.10
  Q 157.89 154.99 157.89 154.12
  Q 157.89 153.26 157.00 153.15
  Q 155.93 153.03 153.84 153.14
  A 0.94 0.91 87.2 0 1 152.88 152.24
  L 152.86 151.92
  Q 152.82 151.01 153.78 150.99
  L 157.84 150.93
  Q 158.62 150.91 158.61 150.16
  L 158.59 149.69
  A 0.52 0.48 -0.0 0 0 158.08 149.22
  L 151.57 149.09
  A 0.62 0.56 1.9 0 0 150.94 149.62
  Q 150.79 152.02 150.78 154.13"
/>
<path stroke="#f8b69a" vector-effect="non-scaling-stroke" d="
  M 102.90 159.37
  C 105.06 159.37 107.13 158.15 107.32 155.79
  Q 107.47 153.86 107.44 149.95
  Q 107.43 149.20 106.71 149.21
  L 106.09 149.22
  Q 105.28 149.23 105.29 149.98
  Q 105.33 154.18 105.22 155.48
  C 105.11 156.88 104.28 157.62 102.90 157.62
  C 101.52 157.62 100.68 156.88 100.57 155.48
  Q 100.46 154.18 100.49 149.98
  Q 100.50 149.23 99.69 149.22
  L 99.07 149.22
  Q 98.35 149.21 98.34 149.96
  Q 98.32 153.87 98.47 155.80
  C 98.67 158.16 100.74 159.37 102.90 159.37"
/>
<path stroke="#f8b69a" vector-effect="non-scaling-stroke" d="
  M 107.77 132.91
  A 7.22 7.22 0.0 0 0 100.55 125.69
  A 7.22 7.22 0.0 0 0 93.33 132.91
  A 7.22 7.22 0.0 0 0 100.55 140.13
  A 7.22 7.22 0.0 0 0 107.77 132.91"
/>
<path stroke="#f8b69a" vector-effect="non-scaling-stroke" d="
  M 51.72 126.65
  L 51.64 132.55
  A 0.89 0.89 0.0 0 0 52.52 133.45
  L 57.08 133.51
  A 3.81 3.65 0.7 0 0 60.94 129.91
  L 60.94 129.53
  A 3.81 3.65 0.7 0 0 57.18 125.83
  L 52.62 125.77
  A 0.89 0.89 0.0 0 0 51.72 126.65"
/>
<path stroke="#f8b69a" vector-effect="non-scaling-stroke" d="
  M 72.47 126.78
  L 72.49 132.16
  A 0.96 0.96 0.0 0 0 73.45 133.11
  L 78.03 133.10
  A 3.62 3.46 -0.2 0 0 81.64 129.62
  L 81.64 129.24
  A 3.62 3.46 -0.2 0 0 78.01 125.80
  L 73.43 125.81
  A 0.96 0.96 0.0 0 0 72.47 126.78"
/>
<path stroke="#f8b69a" vector-effect="non-scaling-stroke" d="
  M 95.0510 152.0736
  A 1.17 1.17 0.0 0 0 93.8831 150.9016
  L 92.1031 150.8984
  A 1.17 1.17 0.0 0 0 90.9310 152.0664
  L 90.9290 153.2464
  A 1.17 1.17 0.0 0 0 92.0969 154.4184
  L 93.8769 154.4216
  A 1.17 1.17 0.0 0 0 95.0490 153.2536
  L 95.0510 152.0736"
/>
<path stroke="#f8b69a" vector-effect="non-scaling-stroke" d="
  M 111.78 151.60
  L 111.78 153.40
  A 0.68 0.68 0.0 0 0 112.46 154.08
  L 114.29 154.08
  A 1.69 1.30 0.0 0 0 115.98 152.78
  L 115.98 152.22
  A 1.69 1.30 -0.0 0 0 114.29 150.92
  L 112.46 150.92
  A 0.68 0.68 0.0 0 0 111.78 151.60"
/>
<path stroke="#f8b69a" vector-effect="non-scaling-stroke" d="
  M 121.88 151.45
  L 121.80 153.71
  A 0.64 0.64 0.0 0 0 122.42 154.37
  L 123.44 154.41
  A 2.44 1.45 2.0 0 0 125.93 153.04
  L 125.95 152.40
  A 2.44 1.45 2.0 0 0 123.56 150.87
  L 122.54 150.83
  A 0.64 0.64 0.0 0 0 121.88 151.45"
/>
<path stroke="#f8b69a" vector-effect="non-scaling-stroke" d="
  M 137.70 154.13
  A 3.32 3.32 0.0 0 0 134.38 150.81
  A 3.32 3.32 0.0 0 0 131.06 154.13
  A 3.32 3.32 0.0 0 0 134.38 157.45
  A 3.32 3.32 0.0 0 0 137.70 154.13"
/>
<path stroke="#91a0cb" vector-effect="non-scaling-stroke" d="
  M 57.03 230.63
  A 0.47 0.47 0.0 0 0 56.89 231.41
  L 59.47 233.77
  A 0.47 0.47 0.0 0 0 60.24 233.56
  L 61.47 229.62
  A 0.47 0.47 0.0 0 0 60.85 229.05
  L 57.03 230.63"
/>
<path stroke="#91a0cb" vector-effect="non-scaling-stroke" d="
  M 113.49 251.11
  L 112.34 255.96
  A 0.77 0.77 0.0 0 0 112.91 256.89
  L 116.41 257.72
  A 3.43 3.10 13.4 0 0 120.47 255.50
  L 120.54 255.19
  A 3.43 3.10 13.4 0 0 117.92 251.38
  L 114.42 250.54
  A 0.77 0.77 0.0 0 0 113.49 251.11"
/>
<path stroke="#91a0cb" vector-effect="non-scaling-stroke" d="
  M 129.22 261.73
  A 0.42 0.42 0.0 0 0 129.54 262.36
  L 133.27 262.71
  A 0.42 0.42 0.0 0 0 133.70 262.15
  L 132.20 258.07
  A 0.42 0.42 0.0 0 0 131.45 258.00
  L 129.22 261.73"
/>
</g>
<path fill="#f06c35" d="
  M 262.28 100.49
  L 257.57 101.89
  Q 256.65 102.16 256.32 101.21
  Q 246.03 71.45 221.98 50.59
  C 168.91 4.57 85.57 12.63 43.04 68.55
  Q 23.38 94.42 20.25 126.56
  Q 17.25 157.39 30.71 185.96
  Q 31.24 187.09 30.07 187.61
  L 26.02 189.44
  A 1.19 1.19 0.0 0 1 24.46 188.87
  Q 5.95 149.23 16.59 107.61
  C 27.83 63.59 63.32 29.93 106.97 18.45
  Q 140.17 9.72 173.32 18.01
  C 215.15 28.48 248.71 58.37 262.98 99.25
  Q 263.31 100.18 262.28 100.49
  Z"
/>
<path fill="#234097" d="
  M 41.71 173.57
  L 58.22 173.76
  C 69.83 195.76 89.15 212.89 112.80 220.37
  C 136.30 227.80 162.21 224.40 184.57 213.35
  Q 192.60 209.37 197.65 203.23
  Q 202.23 197.64 200.79 191.46
  Q 200.25 189.18 200.70 188.08
  C 202.03 184.78 202.76 182.79 201.89 179.36
  Q 200.77 174.96 196.94 174.11
  C 193.61 173.38 190.47 175.92 187.61 174.27
  Q 183.57 171.94 182.66 169.78
  Q 182.06 168.34 180.55 159.31
  Q 180.00 156.00 180.55 154.24
  C 182.28 148.74 187.80 144.11 193.52 143.52
  Q 208.56 141.96 215.26 141.29
  Q 216.58 141.15 218.11 141.95
  C 221.36 143.63 219.71 148.60 224.65 148.59
  C 226.93 148.58 227.97 144.72 227.69 143.32
  Q 227.19 140.85 224.53 134.32
  Q 223.66 132.16 221.53 132.16
  Q 216.37 132.16 209.86 134.69
  A 4.47 4.46 -40.2 0 1 205.96 134.37
  L 205.62 134.17
  Q 203.34 132.81 205.71 131.61
  Q 212.70 128.05 217.57 125.57
  Q 219.18 124.74 219.60 123.42
  A 2.28 2.16 21.9 0 0 218.39 120.79
  L 212.28 117.77
  A 2.02 1.92 31.4 0 1 211.49 114.84
  C 213.23 112.54 217.08 112.96 220.08 112.83
  C 221.26 112.78 222.80 112.25 223.10 111.12
  Q 223.53 109.47 223.09 108.87
  Q 221.68 106.96 220.31 105.12
  Q 218.68 102.92 216.56 94.18
  Q 215.81 91.04 212.72 91.95
  Q 211.46 92.33 208.19 93.72
  Q 207.68 93.94 204.45 93.90
  Q 203.50 93.88 200.84 93.07
  Q 198.83 92.46 197.11 92.53
  Q 195.38 92.60 188.83 93.70
  Q 186.84 94.03 184.74 93.30
  A 2.47 2.45 10.2 0 1 183.09 90.94
  C 183.13 88.32 184.80 86.08 186.41 84.22
  C 188.40 81.92 189.16 78.51 186.71 76.53
  Q 180.80 71.76 175.72 68.05
  A 2.50 2.50 0.0 0 0 171.81 69.52
  C 171.33 71.64 171.93 74.47 172.27 78.23
  Q 172.41 79.78 170.56 80.92
  Q 169.39 81.64 167.91 80.85
  Q 164.50 79.03 164.65 74.58
  Q 164.90 67.05 168.35 59.77
  A 1.87 1.81 -71.7 0 0 167.08 57.14
  L 148.73 53.73
  Q 148.18 53.63 147.77 53.82
  Q 142.52 56.26 135.79 58.47
  Q 133.75 59.14 132.04 61.09
  A 1.67 1.67 0.0 0 0 132.09 63.36
  Q 134.52 65.85 137.47 66.65
  Q 139.33 67.16 143.60 66.86
  Q 147.94 66.56 150.35 66.58
  A 1.71 1.71 0.0 0 1 152.05 68.21
  C 152.16 70.55 150.37 71.91 148.09 72.68
  Q 145.30 73.62 144.13 73.90
  C 142.04 74.40 140.96 76.35 141.10 78.08
  Q 141.24 79.65 142.98 83.28
  Q 143.18 83.69 143.63 83.81
  Q 145.13 84.22 146.74 83.91
  Q 150.65 83.16 152.04 82.79
  Q 157.26 81.43 160.09 85.42
  Q 163.80 90.63 164.19 96.12
  A 2.99 2.81 77.4 0 1 162.45 99.06
  Q 162.04 99.23 160.82 98.75
  Q 160.18 98.50 159.58 97.76
  Q 157.49 95.16 154.30 96.08
  Q 153.82 96.22 153.33 96.10
  Q 150.38 95.35 149.41 95.58
  Q 145.42 96.50 141.40 97.31
  Q 137.00 98.20 133.59 99.62
  Q 128.86 101.59 124.05 103.91
  L 111.88 103.95
  Q 110.33 98.92 105.83 97.90
  C 102.58 97.17 95.07 97.12 92.59 99.31
  Q 90.30 101.32 92.15 103.85
  L 84.80 103.83
  Q 83.16 100.39 83.06 99.21
  Q 82.10 87.66 79.33 76.49
  A 0.21 0.21 0.0 0 0 78.98 76.39
  Q 66.70 88.10 58.80 103.76
  L 41.22 103.71
  A 106.50 102.35 -0.0 0 1 65.31 66.54
  A 106.51 102.39 -0.2 0 1 120.63 37.63
  A 106.53 102.35 -0.6 0 1 179.06 42.18
  A 106.55 102.29 -0.2 0 1 226.95 76.78
  A 106.54 102.36 0.2 0 1 247.80 130.50
  A 106.50 102.32 -0.4 0 1 233.48 189.73
  A 106.55 102.43 -0.0 0 1 190.78 228.76
  A 106.48 102.32 0.0 0 1 128.48 239.56
  A 106.47 102.27 -0.4 0 1 74.51 217.50
  A 106.53 102.35 0.0 0 1 41.71 173.57
  Z"
/>
<path fill="#f06c35" d="
  M 58.80 103.76
  L 84.80 103.83
  L 92.15 103.85
  L 111.88 103.95
  L 124.05 103.91
  Q 139.48 103.73 154.56 103.93
  Q 158.48 103.98 160.94 105.38
  Q 162.85 106.47 164.28 109.33
  Q 171.90 124.53 178.90 137.90
  Q 179.60 139.23 178.28 142.02
  Q 174.01 151.07 167.25 165.73
  Q 163.78 173.23 155.48 173.53
  Q 146.52 173.86 137.44 173.74
  L 95.26 173.73
  L 58.22 173.76
  L 41.71 173.57
  A 38.14 13.55 70.0 0 1 39.90 168.49
  A 106.55 102.40 -0.5 0 1 35.39 130.01
  A 106.44 102.25 -0.6 0 1 41.22 103.71
  L 58.80 103.76
  Z
  M 112.2900 132.8905
  A 11.73 11.30 0.1 0 0 100.5797 121.5700
  A 11.73 11.30 0.1 0 0 88.8300 132.8495
  A 11.73 11.30 0.1 0 0 100.5403 144.1700
  A 11.73 11.30 0.1 0 0 112.2900 132.8905
  Z
  M 51.74 138.08
  Q 51.75 137.31 52.49 137.36
  C 56.13 137.61 61.85 137.45 64.02 134.32
  Q 65.82 131.73 65.25 128.77
  Q 64.02 122.25 57.01 122.07
  Q 53.42 121.98 47.91 122.11
  Q 47.31 122.13 47.30 122.74
  L 47.24 142.68
  Q 47.24 143.87 48.48 143.84
  L 50.47 143.81
  Q 51.69 143.79 51.70 142.54
  L 51.74 138.08
  Z
  M 73.29 136.95
  C 75.51 136.82 76.39 136.66 77.81 138.58
  Q 80.01 141.56 81.02 142.82
  Q 81.88 143.89 83.27 143.80
  L 85.68 143.64
  Q 87.00 143.56 86.21 142.53
  L 82.33 137.47
  Q 81.75 136.72 82.50 136.16
  Q 86.81 132.99 85.99 128.13
  Q 85.59 125.79 83.93 124.13
  Q 82.18 122.38 79.54 122.17
  Q 74.83 121.79 68.76 122.19
  Q 68.01 122.23 68.02 122.97
  L 68.09 142.59
  Q 68.10 143.86 69.34 143.82
  L 71.33 143.76
  Q 72.41 143.72 72.44 142.78
  L 72.63 137.65
  Q 72.65 136.98 73.29 136.95
  Z
  M 120.59 135.71
  A 0.79 0.79 0.0 0 1 121.38 134.93
  L 130.62 134.89
  A 0.79 0.79 0.0 0 0 131.40 134.08
  L 131.33 131.87
  A 0.79 0.79 0.0 0 0 130.55 131.11
  L 121.40 131.00
  A 0.79 0.79 0.0 0 1 120.62 130.22
  L 120.59 126.66
  A 0.79 0.79 0.0 0 1 121.37 125.86
  L 131.80 125.70
  A 0.79 0.79 0.0 0 0 132.57 124.99
  L 132.80 122.92
  A 0.79 0.79 0.0 0 0 132.01 122.04
  L 116.87 122.07
  A 0.79 0.79 0.0 0 0 116.08 122.86
  L 116.17 142.97
  A 0.79 0.79 0.0 0 0 116.95 143.76
  L 119.71 143.78
  A 0.79 0.79 0.0 0 0 120.51 143.00
  L 120.59 135.71
  Z
  M 141.2773 123.0340
  A 0.93 0.93 0.0 0 0 140.3489 122.1024
  L 137.6489 122.0977
  A 0.93 0.93 0.0 0 0 136.7173 123.0260
  L 136.6827 142.8260
  A 0.93 0.93 0.0 0 0 137.6111 143.7576
  L 140.3111 143.7623
  A 0.93 0.93 0.0 0 0 141.2427 142.8340
  L 141.2773 123.0340
  Z
  M 152.92 143.82
  Q 153.95 143.81 154.61 143.62
  A 0.69 0.69 0.0 0 0 155.11 142.97
  L 155.14 126.76
  A 0.86 0.85 89.7 0 1 155.97 125.91
  L 160.55 125.80
  A 0.95 0.86 1.3 0 0 161.47 125.00
  L 161.63 123.00
  Q 161.70 122.14 160.85 122.12
  Q 157.05 122.00 152.90 122.04
  Q 148.75 122.01 144.95 122.14
  Q 144.10 122.16 144.18 123.02
  L 144.34 125.02
  A 0.95 0.86 -1.4 0 0 145.26 125.82
  L 149.84 125.92
  A 0.86 0.85 -89.8 0 1 150.67 126.76
  L 150.74 142.97
  A 0.69 0.69 0.0 0 0 151.24 143.62
  Q 151.90 143.81 152.92 143.82
  Z
  M 51.87 154.50
  Q 52.29 154.50 52.46 154.87
  Q 53.30 156.74 54.11 158.41
  A 0.70 0.68 -48.3 0 0 55.38 158.32
  L 58.43 150.05
  A 0.71 0.69 -82.7 0 0 57.72 149.10
  L 57.37 149.14
  Q 56.64 149.21 56.35 149.89
  L 54.88 153.29
  A 0.52 0.49 -44.1 0 1 53.94 153.30
  Q 53.36 151.67 52.53 149.94
  Q 52.26 149.37 51.87 149.37
  Q 51.49 149.37 51.22 149.94
  Q 50.39 151.67 49.81 153.30
  A 0.52 0.49 44.1 0 1 48.87 153.29
  L 47.40 149.89
  Q 47.11 149.21 46.38 149.14
  L 46.03 149.10
  A 0.71 0.69 82.7 0 0 45.32 150.05
  L 48.36 158.32
  A 0.70 0.68 48.3 0 0 49.63 158.41
  Q 50.44 156.74 51.29 154.87
  Q 51.46 154.50 51.87 154.50
  Z
  M 62.0372 150.0517
  A 0.90 0.90 0.0 0 0 61.1387 149.1501
  L 61.0387 149.1499
  A 0.90 0.90 0.0 0 0 60.1372 150.0483
  L 60.1228 158.2683
  A 0.90 0.90 0.0 0 0 61.0213 159.1699
  L 61.1213 159.1701
  A 0.90 0.90 0.0 0 0 62.0228 158.2717
  L 62.0372 150.0517
  Z
  M 67.70 159.19
  Q 68.89 159.19 68.82 157.25
  Q 68.69 153.61 68.82 151.69
  Q 68.85 151.18 69.35 151.07
  Q 70.68 150.76 71.15 150.59
  Q 71.87 150.33 71.81 149.84
  Q 71.76 149.40 71.12 149.24
  Q 70.67 149.13 67.72 149.12
  Q 64.77 149.12 64.32 149.23
  Q 63.68 149.39 63.63 149.83
  Q 63.57 150.31 64.29 150.58
  Q 64.76 150.75 66.09 151.06
  Q 66.59 151.18 66.61 151.69
  Q 66.74 153.61 66.59 157.25
  Q 66.52 159.19 67.70 159.19
  Z
  M 77.52 155.15
  Q 78.39 155.15 79.17 155.19
  A 0.87 0.87 0.0 0 1 79.98 155.98
  L 80.21 158.52
  Q 80.25 159.03 80.73 159.23
  Q 81.17 159.41 81.65 159.03
  A 1.09 1.06 71.4 0 0 82.06 158.18
  L 82.06 149.78
  A 0.83 0.71 0.8 0 0 81.25 149.07
  L 80.83 149.07
  A 0.69 0.67 -88.3 0 0 80.15 149.73
  L 80.02 152.72
  Q 80.00 153.22 79.48 153.30
  Q 79.15 153.35 77.52 153.35
  Q 75.89 153.35 75.56 153.30
  Q 75.04 153.22 75.02 152.72
  L 74.89 149.73
  A 0.69 0.67 88.3 0 0 74.22 149.07
  L 73.80 149.07
  A 0.83 0.71 -0.8 0 0 72.98 149.78
  L 72.98 158.18
  A 1.09 1.06 -71.4 0 0 73.39 159.03
  Q 73.87 159.41 74.31 159.23
  Q 74.79 159.03 74.83 158.52
  L 75.06 155.98
  A 0.87 0.87 0.0 0 1 75.87 155.19
  Q 76.65 155.15 77.52 155.15
  Z
  M 91.84 156.15
  Q 93.11 156.31 94.52 156.10
  C 98.17 155.57 98.22 150.12 94.74 149.35
  Q 92.63 148.88 89.48 149.20
  Q 88.93 149.25 88.94 149.81
  L 89.09 158.35
  Q 89.10 158.88 89.56 159.14
  Q 89.74 159.24 89.94 159.25
  Q 90.47 159.28 90.67 158.78
  Q 91.05 157.79 91.09 156.80
  A 0.67 0.67 0.0 0 1 91.84 156.15
  Z
  M 116.68 155.55
  Q 118.47 153.95 118.01 151.61
  Q 117.58 149.48 115.29 149.30
  L 111.62 149.01
  Q 109.60 148.85 109.63 150.86
  L 109.74 158.37
  A 0.79 0.70 88.6 0 0 110.47 159.15
  L 110.84 159.13
  Q 111.64 159.10 111.71 158.36
  L 111.87 156.55
  Q 111.92 156.05 112.45 155.96
  Q 113.21 155.82 113.59 156.16
  Q 114.05 156.58 115.21 158.22
  Q 115.77 159.01 116.86 159.11
  L 117.68 159.19
  Q 118.60 159.28 118.07 158.54
  L 116.61 156.53
  Q 116.20 155.97 116.68 155.55
  Z
  M 122.02 156.78
  A 0.67 0.64 -84.3 0 1 122.64 156.25
  C 124.28 156.21 126.74 156.15 127.58 154.69
  C 128.67 152.76 128.07 149.88 125.61 149.40
  Q 122.83 148.86 120.29 149.21
  Q 119.74 149.29 119.74 149.87
  L 119.71 158.20
  A 0.94 0.93 17.0 0 0 120.13 158.98
  Q 120.61 159.29 121.04 159.17
  Q 121.52 159.04 121.63 158.54
  L 122.02 156.78
  Z
  M 139.8025 154.4352
  A 5.45 5.16 3.0 0 0 134.6301 148.9971
  A 5.45 5.16 3.0 0 0 128.9175 153.8648
  A 5.45 5.16 3.0 0 0 134.0899 159.3029
  A 5.45 5.16 3.0 0 0 139.8025 154.4352
  Z
  M 146.37 157.32
  Q 144.48 157.63 142.33 156.34
  A 0.69 0.67 -71.8 0 0 141.31 156.87
  L 141.26 157.34
  A 1.03 1.00 -73.0 0 0 141.77 158.34
  C 144.65 159.92 150.68 160.22 149.18 154.81
  Q 148.96 154.02 148.16 153.78
  L 143.81 152.48
  A 0.72 0.71 27.0 0 1 143.44 151.37
  Q 143.84 150.86 144.76 150.94
  Q 145.71 151.02 147.66 151.62
  Q 148.26 151.80 148.62 151.29
  Q 148.84 150.98 148.71 150.60
  Q 148.40 149.69 147.95 149.54
  C 145.51 148.75 141.19 148.40 141.11 151.99
  Q 141.06 154.22 143.10 154.65
  Q 144.57 154.97 146.46 155.32
  Q 146.99 155.42 147.20 155.91
  Q 147.38 156.34 147.19 156.70
  Q 146.92 157.24 146.37 157.32
  Z
  M 150.78 154.13
  Q 150.79 156.23 150.94 158.63
  A 0.62 0.56 -2.0 0 0 151.57 159.16
  L 158.08 159.03
  A 0.52 0.48 -0.0 0 0 158.59 158.56
  L 158.61 158.08
  Q 158.62 157.33 157.84 157.32
  L 153.78 157.26
  Q 152.82 157.24 152.86 156.33
  L 152.88 156.01
  A 0.94 0.91 -87.3 0 1 153.84 155.11
  Q 155.93 155.22 157.00 155.10
  Q 157.89 154.99 157.89 154.12
  Q 157.89 153.26 157.00 153.15
  Q 155.93 153.03 153.84 153.14
  A 0.94 0.91 87.2 0 1 152.88 152.24
  L 152.86 151.92
  Q 152.82 151.01 153.78 150.99
  L 157.84 150.93
  Q 158.62 150.91 158.61 150.16
  L 158.59 149.69
  A 0.52 0.48 -0.0 0 0 158.08 149.22
  L 151.57 149.09
  A 0.62 0.56 1.9 0 0 150.94 149.62
  Q 150.79 152.02 150.78 154.13
  Z
  M 102.90 159.37
  C 105.06 159.37 107.13 158.15 107.32 155.79
  Q 107.47 153.86 107.44 149.95
  Q 107.43 149.20 106.71 149.21
  L 106.09 149.22
  Q 105.28 149.23 105.29 149.98
  Q 105.33 154.18 105.22 155.48
  C 105.11 156.88 104.28 157.62 102.90 157.62
  C 101.52 157.62 100.68 156.88 100.57 155.48
  Q 100.46 154.18 100.49 149.98
  Q 100.50 149.23 99.69 149.22
  L 99.07 149.22
  Q 98.35 149.21 98.34 149.96
  Q 98.32 153.87 98.47 155.80
  C 98.67 158.16 100.74 159.37 102.90 159.37
  Z"
/>
<path fill="#234097" d="
  M 272.96 115.51
  Q 273.13 116.40 273.03 116.96
  Q 272.93 117.47 272.42 117.57
  L 258.17 120.36
  Q 257.55 120.48 257.67 121.13
  L 258.32 124.79
  A 0.88 0.82 68.3 0 1 257.99 125.63
  Q 257.01 126.33 255.47 126.18
  A 1.04 0.46 73.3 0 1 254.87 125.48
  Q 254.65 124.92 253.55 119.28
  Q 252.46 113.64 252.45 113.03
  A 1.04 0.46 84.7 0 1 252.75 112.16
  Q 254.12 111.45 255.29 111.73
  A 0.88 0.82 89.7 0 1 255.91 112.38
  L 256.68 116.02
  Q 256.81 116.67 257.43 116.55
  L 271.69 113.80
  Q 272.20 113.70 272.48 114.13
  Q 272.78 114.62 272.96 115.51
  Z"
/>
<path fill="#ffffff" d="
  M 112.2900 132.8905
  A 11.73 11.30 0.1 0 1 100.5403 144.1700
  A 11.73 11.30 0.1 0 1 88.8300 132.8495
  A 11.73 11.30 0.1 0 1 100.5797 121.5700
  A 11.73 11.30 0.1 0 1 112.2900 132.8905
  Z
  M 107.77 132.91
  A 7.22 7.22 0.0 0 0 100.55 125.69
  A 7.22 7.22 0.0 0 0 93.33 132.91
  A 7.22 7.22 0.0 0 0 100.55 140.13
  A 7.22 7.22 0.0 0 0 107.77 132.91
  Z"
/>
<path fill="#ffffff" d="
  M 51.74 138.08
  L 51.70 142.54
  Q 51.69 143.79 50.47 143.81
  L 48.48 143.84
  Q 47.24 143.87 47.24 142.68
  L 47.30 122.74
  Q 47.31 122.13 47.91 122.11
  Q 53.42 121.98 57.01 122.07
  Q 64.02 122.25 65.25 128.77
  Q 65.82 131.73 64.02 134.32
  C 61.85 137.45 56.13 137.61 52.49 137.36
  Q 51.75 137.31 51.74 138.08
  Z
  M 51.72 126.65
  L 51.64 132.55
  A 0.89 0.89 0.0 0 0 52.52 133.45
  L 57.08 133.51
  A 3.81 3.65 0.7 0 0 60.94 129.91
  L 60.94 129.53
  A 3.81 3.65 0.7 0 0 57.18 125.83
  L 52.62 125.77
  A 0.89 0.89 0.0 0 0 51.72 126.65
  Z"
/>
<path fill="#ffffff" d="
  M 72.63 137.65
  L 72.44 142.78
  Q 72.41 143.72 71.33 143.76
  L 69.34 143.82
  Q 68.10 143.86 68.09 142.59
  L 68.02 122.97
  Q 68.01 122.23 68.76 122.19
  Q 74.83 121.79 79.54 122.17
  Q 82.18 122.38 83.93 124.13
  Q 85.59 125.79 85.99 128.13
  Q 86.81 132.99 82.50 136.16
  Q 81.75 136.72 82.33 137.47
  L 86.21 142.53
  Q 87.00 143.56 85.68 143.64
  L 83.27 143.80
  Q 81.88 143.89 81.02 142.82
  Q 80.01 141.56 77.81 138.58
  C 76.39 136.66 75.51 136.82 73.29 136.95
  Q 72.65 136.98 72.63 137.65
  Z
  M 72.47 126.78
  L 72.49 132.16
  A 0.96 0.96 0.0 0 0 73.45 133.11
  L 78.03 133.10
  A 3.62 3.46 -0.2 0 0 81.64 129.62
  L 81.64 129.24
  A 3.62 3.46 -0.2 0 0 78.01 125.80
  L 73.43 125.81
  A 0.96 0.96 0.0 0 0 72.47 126.78
  Z"
/>
<path fill="#ffffff" d="
  M 120.59 135.71
  L 120.51 143.00
  A 0.79 0.79 0.0 0 1 119.71 143.78
  L 116.95 143.76
  A 0.79 0.79 0.0 0 1 116.17 142.97
  L 116.08 122.86
  A 0.79 0.79 0.0 0 1 116.87 122.07
  L 132.01 122.04
  A 0.79 0.79 0.0 0 1 132.80 122.92
  L 132.57 124.99
  A 0.79 0.79 0.0 0 1 131.80 125.70
  L 121.37 125.86
  A 0.79 0.79 0.0 0 0 120.59 126.66
  L 120.62 130.22
  A 0.79 0.79 0.0 0 0 121.40 131.00
  L 130.55 131.11
  A 0.79 0.79 0.0 0 1 131.33 131.87
  L 131.40 134.08
  A 0.79 0.79 0.0 0 1 130.62 134.89
  L 121.38 134.93
  A 0.79 0.79 0.0 0 0 120.59 135.71
  Z"
/>
<rect fill="#ffffff" x="-2.28" y="-10.83" transform="translate(138.98,132.93) rotate(0.1)" width="4.56" height="21.66" rx="0.93"/>
<path fill="#ffffff" d="
  M 152.90 122.04
  Q 157.05 122.00 160.85 122.12
  Q 161.70 122.14 161.63 123.00
  L 161.47 125.00
  A 0.95 0.86 1.3 0 1 160.55 125.80
  L 155.97 125.91
  A 0.86 0.85 89.7 0 0 155.14 126.76
  L 155.11 142.97
  A 0.69 0.69 0.0 0 1 154.61 143.62
  Q 153.95 143.81 152.92 143.82
  Q 151.90 143.81 151.24 143.62
  A 0.69 0.69 0.0 0 1 150.74 142.97
  L 150.67 126.76
  A 0.86 0.85 -89.8 0 0 149.84 125.92
  L 145.26 125.82
  A 0.95 0.86 -1.4 0 1 144.34 125.02
  L 144.18 123.02
  Q 144.10 122.16 144.95 122.14
  Q 148.75 122.01 152.90 122.04
  Z"
/>
<circle fill="#f06c35" cx="100.55" cy="132.91" r="7.22"/>
<path fill="#f06c35" d="
  M 51.72 126.65
  A 0.89 0.89 0.0 0 1 52.62 125.77
  L 57.18 125.83
  A 3.81 3.65 0.7 0 1 60.94 129.53
  L 60.94 129.91
  A 3.81 3.65 0.7 0 1 57.08 133.51
  L 52.52 133.45
  A 0.89 0.89 0.0 0 1 51.64 132.55
  L 51.72 126.65
  Z"
/>
<path fill="#f06c35" d="
  M 72.47 126.78
  A 0.96 0.96 0.0 0 1 73.43 125.81
  L 78.01 125.80
  A 3.62 3.46 -0.2 0 1 81.64 129.24
  L 81.64 129.62
  A 3.62 3.46 -0.2 0 1 78.03 133.10
  L 73.45 133.11
  A 0.96 0.96 0.0 0 1 72.49 132.16
  L 72.47 126.78
  Z"
/>
<path fill="#234097" d="
  M 264.14 133.89
  Q 265.29 132.64 266.41 131.26
  A 0.30 0.30 0.0 0 0 266.16 130.78
  L 256.41 131.21
  Q 255.50 131.25 255.46 130.30
  L 255.37 128.50
  Q 255.32 127.45 256.34 127.40
  L 274.40 126.55
  A 0.57 0.57 0.0 0 1 274.87 127.48
  Q 270.84 132.35 266.98 136.56
  Q 265.83 137.81 264.71 139.19
  A 0.30 0.30 0.0 0 0 264.96 139.67
  L 274.71 139.24
  Q 275.62 139.20 275.66 140.15
  L 275.75 141.95
  Q 275.80 143.00 274.78 143.05
  L 256.72 143.90
  A 0.57 0.57 0.0 0 1 256.25 142.97
  Q 260.28 138.10 264.14 133.89
  Z"
/>
<path fill="#234097" d="
  M 265.61 148.13
  Q 266.39 148.22 266.81 148.39
  A 0.86 0.82 -76.7 0 1 267.32 149.26
  L 266.58 156.48
  Q 266.48 157.47 267.49 157.55
  L 269.88 157.76
  Q 270.83 157.84 270.93 156.90
  L 271.81 148.80
  A 1.10 1.10 0.0 0 1 273.01 147.83
  L 274.60 147.98
  A 0.98 0.95 -84.4 0 1 275.45 149.05
  L 274.10 161.28
  A 0.74 0.73 -84.7 0 1 273.32 161.94
  Q 271.83 161.84 264.20 161.00
  Q 256.56 160.17 255.09 159.95
  A 0.74 0.73 -82.8 0 1 254.47 159.13
  L 255.79 146.90
  A 0.98 0.95 -83.1 0 1 256.86 146.04
  L 258.44 146.24
  A 1.10 1.10 0.0 0 1 259.40 147.44
  L 258.51 155.54
  Q 258.41 156.48 259.35 156.61
  L 261.73 156.92
  Q 262.73 157.06 262.85 156.07
  L 263.69 148.86
  A 0.86 0.82 89.2 0 1 264.37 148.12
  Q 264.82 148.05 265.61 148.13
  Z"
/>
<path fill="#ffffff" d="
  M 51.87 149.37
  Q 52.26 149.37 52.53 149.94
  Q 53.36 151.67 53.94 153.30
  A 0.52 0.49 -44.1 0 0 54.88 153.29
  L 56.35 149.89
  Q 56.64 149.21 57.37 149.14
  L 57.72 149.10
  A 0.71 0.69 -82.7 0 1 58.43 150.05
  L 55.38 158.32
  A 0.70 0.68 -48.3 0 1 54.11 158.41
  Q 53.30 156.74 52.46 154.87
  Q 52.29 154.50 51.87 154.50
  Q 51.46 154.50 51.29 154.87
  Q 50.44 156.74 49.63 158.41
  A 0.70 0.68 48.3 0 1 48.36 158.32
  L 45.32 150.05
  A 0.71 0.69 82.7 0 1 46.03 149.10
  L 46.38 149.14
  Q 47.11 149.21 47.40 149.89
  L 48.87 153.29
  A 0.52 0.49 44.1 0 0 49.81 153.30
  Q 50.39 151.67 51.22 149.94
  Q 51.49 149.37 51.87 149.37
  Z"
/>
<rect fill="#ffffff" x="-0.95" y="-5.01" transform="translate(61.08,154.16) rotate(0.1)" width="1.90" height="10.02" rx="0.90"/>
<path fill="#ffffff" d="
  M 67.72 149.12
  Q 70.67 149.13 71.12 149.24
  Q 71.76 149.40 71.81 149.84
  Q 71.87 150.33 71.15 150.59
  Q 70.68 150.76 69.35 151.07
  Q 68.85 151.18 68.82 151.69
  Q 68.69 153.61 68.82 157.25
  Q 68.89 159.19 67.70 159.19
  Q 66.52 159.19 66.59 157.25
  Q 66.74 153.61 66.61 151.69
  Q 66.59 151.18 66.09 151.06
  Q 64.76 150.75 64.29 150.58
  Q 63.57 150.31 63.63 149.83
  Q 63.68 149.39 64.32 149.23
  Q 64.77 149.12 67.72 149.12
  Z"
/>
<path fill="#ffffff" d="
  M 77.52 153.35
  Q 79.15 153.35 79.48 153.30
  Q 80.00 153.22 80.02 152.72
  L 80.15 149.73
  A 0.69 0.67 -88.3 0 1 80.83 149.07
  L 81.25 149.07
  A 0.83 0.71 0.8 0 1 82.06 149.78
  L 82.06 158.18
  A 1.09 1.06 71.4 0 1 81.65 159.03
  Q 81.17 159.41 80.73 159.23
  Q 80.25 159.03 80.21 158.52
  L 79.98 155.98
  A 0.87 0.87 0.0 0 0 79.17 155.19
  Q 78.39 155.15 77.52 155.15
  Q 76.65 155.15 75.87 155.19
  A 0.87 0.87 0.0 0 0 75.06 155.98
  L 74.83 158.52
  Q 74.79 159.03 74.31 159.23
  Q 73.87 159.41 73.39 159.03
  A 1.09 1.06 -71.4 0 1 72.98 158.18
  L 72.98 149.78
  A 0.83 0.71 -0.8 0 1 73.80 149.07
  L 74.22 149.07
  A 0.69 0.67 88.3 0 1 74.89 149.73
  L 75.02 152.72
  Q 75.04 153.22 75.56 153.30
  Q 75.89 153.35 77.52 153.35
  Z"
/>
<path fill="#ffffff" d="
  M 91.84 156.15
  A 0.67 0.67 0.0 0 0 91.09 156.80
  Q 91.05 157.79 90.67 158.78
  Q 90.47 159.28 89.94 159.25
  Q 89.74 159.24 89.56 159.14
  Q 89.10 158.88 89.09 158.35
  L 88.94 149.81
  Q 88.93 149.25 89.48 149.20
  Q 92.63 148.88 94.74 149.35
  C 98.22 150.12 98.17 155.57 94.52 156.10
  Q 93.11 156.31 91.84 156.15
  Z
  M 95.0510 152.0736
  A 1.17 1.17 0.0 0 0 93.8831 150.9016
  L 92.1031 150.8984
  A 1.17 1.17 0.0 0 0 90.9310 152.0664
  L 90.9290 153.2464
  A 1.17 1.17 0.0 0 0 92.0969 154.4184
  L 93.8769 154.4216
  A 1.17 1.17 0.0 0 0 95.0490 153.2536
  L 95.0510 152.0736
  Z"
/>
<path fill="#ffffff" d="
  M 116.61 156.53
  L 118.07 158.54
  Q 118.60 159.28 117.68 159.19
  L 116.86 159.11
  Q 115.77 159.01 115.21 158.22
  Q 114.05 156.58 113.59 156.16
  Q 113.21 155.82 112.45 155.96
  Q 111.92 156.05 111.87 156.55
  L 111.71 158.36
  Q 111.64 159.10 110.84 159.13
  L 110.47 159.15
  A 0.79 0.70 88.6 0 1 109.74 158.37
  L 109.63 150.86
  Q 109.60 148.85 111.62 149.01
  L 115.29 149.30
  Q 117.58 149.48 118.01 151.61
  Q 118.47 153.95 116.68 155.55
  Q 116.20 155.97 116.61 156.53
  Z
  M 111.78 151.60
  L 111.78 153.40
  A 0.68 0.68 0.0 0 0 112.46 154.08
  L 114.29 154.08
  A 1.69 1.30 0.0 0 0 115.98 152.78
  L 115.98 152.22
  A 1.69 1.30 -0.0 0 0 114.29 150.92
  L 112.46 150.92
  A 0.68 0.68 0.0 0 0 111.78 151.60
  Z"
/>
<path fill="#ffffff" d="
  M 122.02 156.78
  L 121.63 158.54
  Q 121.52 159.04 121.04 159.17
  Q 120.61 159.29 120.13 158.98
  A 0.94 0.93 17.0 0 1 119.71 158.20
  L 119.74 149.87
  Q 119.74 149.29 120.29 149.21
  Q 122.83 148.86 125.61 149.40
  C 128.07 149.88 128.67 152.76 127.58 154.69
  C 126.74 156.15 124.28 156.21 122.64 156.25
  A 0.67 0.64 -84.3 0 0 122.02 156.78
  Z
  M 121.88 151.45
  L 121.80 153.71
  A 0.64 0.64 0.0 0 0 122.42 154.37
  L 123.44 154.41
  A 2.44 1.45 2.0 0 0 125.93 153.04
  L 125.95 152.40
  A 2.44 1.45 2.0 0 0 123.56 150.87
  L 122.54 150.83
  A 0.64 0.64 0.0 0 0 121.88 151.45
  Z"
/>
<path fill="#ffffff" d="
  M 139.8025 154.4352
  A 5.45 5.16 3.0 0 1 134.0899 159.3029
  A 5.45 5.16 3.0 0 1 128.9175 153.8648
  A 5.45 5.16 3.0 0 1 134.6301 148.9971
  A 5.45 5.16 3.0 0 1 139.8025 154.4352
  Z
  M 137.70 154.13
  A 3.32 3.32 0.0 0 0 134.38 150.81
  A 3.32 3.32 0.0 0 0 131.06 154.13
  A 3.32 3.32 0.0 0 0 134.38 157.45
  A 3.32 3.32 0.0 0 0 137.70 154.13
  Z"
/>
<path fill="#ffffff" d="
  M 147.19 156.70
  Q 147.38 156.34 147.20 155.91
  Q 146.99 155.42 146.46 155.32
  Q 144.57 154.97 143.10 154.65
  Q 141.06 154.22 141.11 151.99
  C 141.19 148.40 145.51 148.75 147.95 149.54
  Q 148.40 149.69 148.71 150.60
  Q 148.84 150.98 148.62 151.29
  Q 148.26 151.80 147.66 151.62
  Q 145.71 151.02 144.76 150.94
  Q 143.84 150.86 143.44 151.37
  A 0.72 0.71 27.0 0 0 143.81 152.48
  L 148.16 153.78
  Q 148.96 154.02 149.18 154.81
  C 150.68 160.22 144.65 159.92 141.77 158.34
  A 1.03 1.00 -73.0 0 1 141.26 157.34
  L 141.31 156.87
  A 0.69 0.67 -71.8 0 1 142.33 156.34
  Q 144.48 157.63 146.37 157.32
  Q 146.92 157.24 147.19 156.70
  Z"
/>
<path fill="#ffffff" d="
  M 157.89 154.12
  Q 157.89 154.99 157.00 155.10
  Q 155.93 155.22 153.84 155.11
  A 0.94 0.91 -87.3 0 0 152.88 156.01
  L 152.86 156.33
  Q 152.82 157.24 153.78 157.26
  L 157.84 157.32
  Q 158.62 157.33 158.61 158.08
  L 158.59 158.56
  A 0.52 0.48 -0.0 0 1 158.08 159.03
  L 151.57 159.16
  A 0.62 0.56 -2.0 0 1 150.94 158.63
  Q 150.79 156.23 150.78 154.13
  Q 150.79 152.02 150.94 149.62
  A 0.62 0.56 1.9 0 1 151.57 149.09
  L 158.08 149.22
  A 0.52 0.48 -0.0 0 1 158.59 149.69
  L 158.61 150.16
  Q 158.62 150.91 157.84 150.93
  L 153.78 150.99
  Q 152.82 151.01 152.86 151.92
  L 152.88 152.24
  A 0.94 0.91 87.2 0 0 153.84 153.14
  Q 155.93 153.03 157.00 153.15
  Q 157.89 153.26 157.89 154.12
  Z"
/>
<path fill="#ffffff" d="
  M 102.90 157.62
  C 104.28 157.62 105.11 156.88 105.22 155.48
  Q 105.33 154.18 105.29 149.98
  Q 105.28 149.23 106.09 149.22
  L 106.71 149.21
  Q 107.43 149.20 107.44 149.95
  Q 107.47 153.86 107.32 155.79
  C 107.13 158.15 105.06 159.37 102.90 159.37
  C 100.74 159.37 98.67 158.16 98.47 155.80
  Q 98.32 153.87 98.34 149.96
  Q 98.35 149.21 99.07 149.22
  L 99.69 149.22
  Q 100.50 149.23 100.49 149.98
  Q 100.46 154.18 100.57 155.48
  C 100.68 156.88 101.52 157.62 102.90 157.62
  Z"
/>
<rect fill="#f06c35" x="-2.06" y="-1.76" transform="translate(92.99,152.66) rotate(0.1)" width="4.12" height="3.52" rx="1.17"/>
<path fill="#f06c35" d="
  M 121.88 151.45
  A 0.64 0.64 0.0 0 1 122.54 150.83
  L 123.56 150.87
  A 2.44 1.45 2.0 0 1 125.95 152.40
  L 125.93 153.04
  A 2.44 1.45 2.0 0 1 123.44 154.41
  L 122.42 154.37
  A 0.64 0.64 0.0 0 1 121.80 153.71
  L 121.88 151.45
  Z"
/>
<circle fill="#f06c35" cx="134.38" cy="154.13" r="3.32"/>
<path fill="#f06c35" d="
  M 111.78 151.60
  A 0.68 0.68 0.0 0 1 112.46 150.92
  L 114.29 150.92
  A 1.69 1.30 0.0 0 1 115.98 152.22
  L 115.98 152.78
  A 1.69 1.30 -0.0 0 1 114.29 154.08
  L 112.46 154.08
  A 0.68 0.68 0.0 0 1 111.78 153.40
  L 111.78 151.60
  Z"
/>
<path fill="#234097" d="
  M 267.41 176.37
  Q 267.33 176.63 267.21 176.69
  Q 263.59 178.32 260.39 179.62
  Q 259.37 180.03 260.43 180.34
  L 267.47 182.34
  Q 268.60 182.66 268.28 183.76
  L 267.84 185.27
  Q 267.51 186.37 266.48 186.08
  L 249.91 181.32
  Q 247.52 180.64 249.81 179.71
  Q 256.87 176.86 261.50 174.97
  Q 261.59 174.93 261.65 174.72
  Q 261.71 174.51 261.65 174.43
  Q 258.73 170.38 254.24 164.22
  Q 252.79 162.22 255.18 162.91
  L 271.76 167.63
  Q 272.78 167.93 272.48 169.04
  L 272.06 170.55
  Q 271.75 171.66 270.62 171.33
  L 263.59 169.31
  Q 262.52 169.01 263.17 169.90
  Q 265.20 172.69 267.41 175.99
  Q 267.48 176.10 267.41 176.37
  Z"
/>
<path fill="#234097" d="
  M 137.44 173.74
  Q 136.38 177.81 132.27 179.77
  Q 124.22 183.60 116.02 187.24
  Q 114.76 187.80 110.16 189.14
  C 101.10 191.76 98.96 198.92 96.65 207.15
  A 1.79 1.79 0.0 0 1 93.90 208.13
  C 92.45 207.12 91.19 205.03 90.40 204.00
  Q 86.10 198.37 87.72 190.95
  Q 89.74 181.70 95.26 173.73
  L 137.44 173.74
  Z"
/>
<path fill="#234097" d="
  M 262.40 196.72
  Q 261.95 197.67 261.61 197.95
  Q 261.19 198.31 260.69 198.08
  L 247.75 191.93
  A 0.74 0.74 0.0 0 0 246.77 192.29
  L 245.23 195.55
  Q 245.03 195.99 244.55 196.02
  Q 243.23 196.10 242.00 194.99
  Q 241.67 194.69 241.94 194.01
  Q 242.04 193.76 244.65 188.28
  Q 247.26 182.79 247.39 182.56
  Q 247.75 181.92 248.19 181.99
  Q 249.82 182.24 250.59 183.32
  Q 250.87 183.71 250.66 184.14
  L 249.10 187.39
  A 0.74 0.74 0.0 0 0 249.44 188.38
  L 262.37 194.54
  Q 262.87 194.78 262.85 195.34
  Q 262.85 195.78 262.40 196.72
  Z"
/>
<path fill="#234097" d="
  M 30.78 205.93
  Q 30.81 205.98 30.97 206.21
  Q 33.18 209.46 36.74 207.44
  L 45.82 202.27
  Q 47.17 201.51 48.04 202.80
  L 48.44 203.39
  Q 49.31 204.68 47.93 205.51
  Q 40.30 210.17 38.19 211.19
  C 29.51 215.40 21.26 202.50 29.82 197.05
  Q 33.97 194.41 39.31 191.52
  Q 40.52 190.87 41.19 192.01
  L 41.82 193.08
  Q 42.49 194.24 41.36 194.85
  Q 36.18 197.68 31.97 200.42
  Q 28.74 202.53 30.78 205.93
  Z"
/>
<path fill="#234097" d="
  M 239.69 206.58
  Q 240.93 207.50 242.41 206.13
  C 245.53 203.23 249.55 198.43 254.15 202.20
  Q 257.43 204.89 255.55 209.16
  Q 253.45 213.95 248.48 215.95
  Q 247.43 216.37 246.90 215.38
  L 246.32 214.26
  Q 245.73 213.13 246.79 212.54
  C 249.29 211.17 251.60 209.90 252.07 207.38
  Q 252.33 205.98 251.54 205.27
  A 1.74 1.71 -45.0 0 0 249.26 205.29
  Q 249.07 205.45 245.11 209.04
  C 242.10 211.76 237.80 211.64 235.72 207.93
  Q 234.77 206.23 235.66 203.56
  Q 237.12 199.18 241.64 196.90
  A 1.78 1.72 65.2 0 1 244.03 197.83
  L 244.30 198.46
  A 1.52 1.37 -24.7 0 1 243.52 200.27
  C 241.31 201.37 239.31 203.17 239.26 205.72
  Q 239.25 206.26 239.69 206.58
  Z"
/>
<path fill="#234097" d="
  M 48.00 218.68
  Q 47.68 219.34 48.39 219.15
  L 58.19 216.51
  Q 59.35 216.20 60.11 217.02
  L 61.44 218.47
  Q 62.30 219.39 61.12 219.72
  Q 52.59 222.14 42.19 224.89
  Q 41.55 225.06 41.16 224.88
  A 0.54 0.54 0.0 0 1 40.90 224.16
  L 49.20 206.68
  Q 49.80 205.41 50.85 206.62
  L 51.96 207.91
  A 2.09 1.66 -55.4 0 1 52.10 209.99
  L 48.00 218.68
  Z"
/>
<path fill="#234097" d="
  M 228.27 218.80
  L 230.35 220.64
  A 0.82 0.82 0.0 0 0 231.49 220.59
  L 236.76 215.02
  A 0.82 0.82 0.0 0 1 237.89 214.97
  L 239.39 216.24
  A 0.82 0.82 0.0 0 1 239.46 217.43
  L 234.37 222.88
  A 0.82 0.82 0.0 0 0 234.41 224.05
  L 236.30 225.76
  A 0.82 0.82 0.0 0 0 237.45 225.72
  L 243.49 219.22
  A 0.82 0.82 0.0 0 1 244.63 219.16
  L 246.11 220.47
  A 0.82 0.82 0.0 0 1 246.17 221.65
  L 237.53 230.91
  A 0.82 0.82 0.0 0 1 236.39 230.98
  L 222.91 219.38
  A 0.82 0.82 0.0 0 1 222.84 218.20
  L 231.47 208.93
  A 0.82 0.82 0.0 0 1 232.64 208.90
  L 234.00 210.24
  A 0.82 0.82 0.0 0 1 234.03 211.38
  L 228.21 217.62
  A 0.82 0.82 0.0 0 0 228.27 218.80
  Z"
/>
<path fill="#234097" d="
  M 220.80 233.20
  A 0.39 0.39 0.0 0 0 221.33 232.73
  L 218.85 223.69
  Q 218.43 222.18 219.66 221.19
  L 220.66 220.40
  Q 221.93 219.39 222.35 220.96
  L 227.22 238.97
  Q 227.47 239.90 226.53 240.13
  Q 226.20 240.21 225.48 239.83
  Q 222.37 238.22 208.67 231.93
  Q 207.16 231.24 208.41 230.15
  L 209.03 229.61
  Q 210.41 228.42 212.03 229.17
  L 220.80 233.20
  Z"
/>
<path fill="#234097" d="
  M 51.75 232.55
  Q 48.56 234.38 46.59 230.85
  A 0.25 0.24 -26.0 0 1 46.72 230.50
  Q 58.81 225.77 65.86 223.10
  Q 66.39 222.90 66.56 222.95
  A 0.79 0.64 16.0 0 1 67.13 223.77
  L 61.87 242.90
  Q 61.59 243.90 60.73 243.21
  L 59.04 241.83
  A 1.40 1.26 25.6 0 1 58.53 240.59
  L 58.88 238.54
  Q 59.00 237.86 58.65 237.57
  L 52.90 232.69
  A 1.04 0.96 49.5 0 0 51.75 232.55
  Z
  M 57.03 230.63
  A 0.47 0.47 0.0 0 0 56.89 231.41
  L 59.47 233.77
  A 0.47 0.47 0.0 0 0 60.24 233.56
  L 61.47 229.62
  A 0.47 0.47 0.0 0 0 60.85 229.05
  L 57.03 230.63
  Z"
/>
<path fill="#234097" d="
  M 204.23 242.30
  Q 206.12 242.74 207.94 243.04
  A 0.25 0.24 78.7 0 0 208.18 242.67
  L 203.37 234.73
  Q 202.78 233.75 203.81 233.14
  L 205.16 232.33
  A 1.32 1.27 59.1 0 1 206.93 232.81
  L 215.88 247.68
  A 0.49 0.49 0.0 0 1 215.63 248.39
  Q 214.93 248.64 214.02 248.43
  Q 204.80 246.28 203.28 245.92
  Q 201.39 245.48 199.57 245.18
  A 0.25 0.24 78.7 0 0 199.33 245.55
  L 204.14 253.49
  Q 204.73 254.47 203.70 255.08
  L 202.35 255.89
  A 1.32 1.27 59.1 0 1 200.58 255.41
  L 191.63 240.54
  A 0.49 0.49 0.0 0 1 191.88 239.83
  Q 192.58 239.58 193.49 239.79
  Q 202.71 241.94 204.23 242.30
  Z"
/>
<rect fill="#234097" x="-2.02" y="-9.63" transform="translate(79.78,243.86) rotate(31.4)" width="4.04" height="19.26" rx="1.12"/>
<path fill="#234097" d="
  M 99.30 253.82
  L 92.31 257.31
  A 0.35 0.35 0.0 0 1 91.82 257.10
  L 89.54 249.78
  A 0.35 0.35 0.0 0 0 88.89 249.74
  L 85.76 257.16
  A 0.35 0.35 0.0 0 1 85.31 257.35
  L 82.18 256.15
  A 0.35 0.35 0.0 0 1 81.98 255.68
  L 89.46 238.39
  A 0.35 0.35 0.0 0 1 90.12 238.42
  L 94.20 251.60
  A 0.35 0.35 0.0 0 0 94.69 251.81
  L 107.31 245.33
  A 0.35 0.35 0.0 0 1 107.79 245.78
  L 100.43 262.97
  A 0.35 0.35 0.0 0 1 99.98 263.15
  L 96.90 261.92
  A 0.35 0.35 0.0 0 1 96.71 261.46
  L 99.78 254.27
  A 0.35 0.35 0.0 0 0 99.30 253.82
  Z"
/>
<rect fill="#234097" x="-2.02" y="-9.59" transform="translate(190.09,250.59) rotate(-23.7)" width="4.04" height="19.18" rx="1.22"/>
<path fill="#234097" d="
  M 111.27 260.81
  L 110.38 264.41
  Q 110.10 265.54 109.00 265.35
  L 107.51 265.09
  Q 106.14 264.85 106.45 263.50
  L 110.26 247.09
  A 0.88 0.87 -78.3 0 1 111.27 246.42
  Q 116.26 247.33 120.12 248.41
  C 122.90 249.19 124.76 252.13 124.57 255.16
  Q 124.26 259.91 119.20 261.22
  Q 117.82 261.58 112.00 260.35
  Q 111.42 260.23 111.27 260.81
  Z
  M 113.49 251.11
  L 112.34 255.96
  A 0.77 0.77 0.0 0 0 112.91 256.89
  L 116.41 257.72
  A 3.43 3.10 13.4 0 0 120.47 255.50
  L 120.54 255.19
  A 3.43 3.10 13.4 0 0 117.92 251.38
  L 114.42 250.54
  A 0.77 0.77 0.0 0 0 113.49 251.11
  Z"
/>
<path fill="#234097" d="
  M 171.49 266.17
  Q 170.62 266.37 169.96 266.26
  Q 169.41 266.17 169.29 265.62
  L 166.21 252.03
  A 0.60 0.57 -12.3 0 0 165.50 251.60
  L 161.79 252.43
  A 1.02 0.90 -27.9 0 1 160.93 252.22
  Q 159.98 251.34 160.10 249.75
  Q 160.12 249.46 160.80 249.18
  Q 161.40 248.93 167.28 247.59
  Q 173.16 246.26 173.81 246.23
  Q 174.54 246.19 174.69 246.44
  Q 175.48 247.83 175.00 249.03
  A 1.02 0.90 2.4 0 1 174.32 249.59
  L 170.61 250.44
  A 0.60 0.57 -13.3 0 0 170.16 251.13
  L 173.24 264.72
  Q 173.37 265.27 172.91 265.59
  Q 172.36 265.97 171.49 266.17
  Z"
/>
<path fill="#234097" d="
  M 146.27 260.04
  Q 146.39 261.90 147.17 262.83
  Q 152.11 268.85 157.61 263.09
  A 1.13 1.11 21.5 0 1 158.46 262.73
  Q 159.57 262.77 160.79 263.39
  A 0.97 0.97 0.0 0 1 161.14 264.80
  C 155.91 272.42 142.94 270.19 142.25 260.32
  C 141.58 250.45 154.12 246.46 160.34 253.28
  A 0.97 0.97 0.0 0 1 160.19 254.73
  Q 159.07 255.51 157.97 255.70
  A 1.13 1.11 -29.4 0 1 157.08 255.46
  Q 150.84 250.51 146.78 257.16
  Q 146.13 258.19 146.27 260.04
  Z"
/>
<path fill="#234097" d="
  M 132.46 249.92
  Q 132.68 249.94 132.87 250.06
  Q 133.07 250.19 133.15 250.38
  Q 136.81 259.07 140.88 268.82
  Q 141.08 269.30 140.57 269.40
  Q 136.51 270.15 135.91 267.01
  A 0.94 0.93 88.6 0 0 135.14 266.27
  Q 133.97 266.07 131.13 265.83
  Q 128.30 265.60 127.11 265.60
  A 0.94 0.93 -79.1 0 0 126.23 266.20
  Q 125.12 269.20 121.24 267.79
  Q 120.75 267.60 121.03 267.16
  Q 126.66 258.22 131.71 250.26
  Q 131.82 250.09 132.04 249.99
  Q 132.25 249.90 132.46 249.92
  Z
  M 129.22 261.73
  A 0.42 0.42 0.0 0 0 129.54 262.36
  L 133.27 262.71
  A 0.42 0.42 0.0 0 0 133.70 262.15
  L 132.20 258.07
  A 0.42 0.42 0.0 0 0 131.45 258.00
  L 129.22 261.73
  Z"
/>
</svg>
